<svg xmlns="http://www.w3.org/2000/svg" viewBox="37.8 43.0 412.0 412.0" width="512" height="512" fill="none" role="img" aria-label="Llama logo">
  <g transform="translate(0.000000,564.000000) scale(0.100000,-0.100000)">
    <path d="M3543 4811 c-18 -11 -48 -49 -72 -88 -41 -71 -69 -93 -119 -93 -60
-1 -218 -41 -255 -66 -53 -35 -66 -27 -116 76 -74 149 -125 183 -190 125 -69
-63 -85 -152 -71 -407 l4 -87 -40 -48 c-61 -72 -76 -119 -83 -263 -4 -69 -11
-132 -16 -140 -15 -24 -14 -338 1 -382 9 -25 13 -87 12 -180 -1 -113 2 -152
15 -187 13 -33 15 -52 8 -80 -5 -20 -12 -60 -16 -88 -5 -41 -13 -58 -35 -76
-41 -35 -167 -44 -302 -21 -86 14 -112 15 -164 5 -49 -10 -77 -10 -138 0 -71
12 -82 11 -144 -8 -37 -12 -115 -26 -174 -31 -87 -7 -112 -12 -130 -29 -13
-12 -61 -30 -107 -42 -66 -16 -95 -29 -131 -60 -49 -42 -116 -81 -138 -81 -58
0 -174 -116 -228 -228 -69 -145 -50 -262 50 -306 64 -29 75 -44 68 -103 -3
-25 2 -79 11 -121 9 -43 20 -106 26 -141 8 -46 20 -78 48 -118 37 -54 38 -59
44 -167 6 -100 9 -116 39 -169 28 -50 33 -72 41 -169 15 -169 47 -241 126
-282 107 -55 220 22 237 163 8 62 30 111 50 111 14 0 19 -14 32 -100 16 -106
75 -170 158 -170 82 0 130 52 150 165 4 22 25 92 46 155 20 63 41 141 44 172
8 63 43 106 75 92 9 -4 50 -8 91 -9 47 -1 99 -10 138 -23 34 -12 83 -22 107
-22 62 0 89 -28 104 -106 47 -242 87 -367 137 -420 39 -42 43 -44 98 -44 117
0 158 55 191 251 12 74 47 70 60 -6 30 -181 115 -259 229 -211 56 23 100 106
131 244 21 93 43 173 55 197 27 54 52 149 61 230 14 136 34 201 78 256 24 30
41 64 45 89 6 39 33 103 79 185 20 36 22 52 20 160 -2 81 2 148 14 206 15 77
15 95 3 175 -8 49 -13 93 -12 97 10 34 2 187 -12 219 -12 27 -16 69 -16 152 0
93 -4 125 -21 168 -13 32 -18 64 -15 83 3 16 1 48 -5 70 -26 93 -21 107 48
140 70 34 157 114 206 190 30 47 32 55 31 140 -1 102 -16 144 -85 227 -46 55
-48 80 -14 144 21 40 25 60 25 138 -1 141 -42 208 -166 267 -74 35 -84 54 -84
155 0 73 -1 77 -34 110 -39 39 -58 42 -103 15z m-175 -731 c58 -36 119 -39
217 -13 96 25 138 5 291 -142 96 -92 82 -245 -35 -368 -103 -110 -272 -128
-511 -55 -98 30 -109 37 -181 109 -74 74 -89 113 -89 230 0 115 14 144 89 189
36 21 80 48 96 59 41 28 66 26 123 -9z" fill="#316b4a"/>
    <path d="M3298 3949 c-38 -21 -8 -109 37 -109 20 0 55 36 55 55 0 19 -44 65
-62 65 -7 0 -21 -5 -30 -11z" fill="#ffffff"/>
  </g>
</svg>